<?xml version="1.0" encoding="utf-8"?>
<!-- Generator: Adobe Illustrator 24.3.0, SVG Export Plug-In . SVG Version: 6.00 Build 0)  -->
<svg version="1.1" id="Calque_1" xmlns="http://www.w3.org/2000/svg" xmlns:xlink="http://www.w3.org/1999/xlink" x="0px" y="0px"
	 viewBox="0 0 20 20" style="enable-background:new 0 0 20 20;" xml:space="preserve">
<style type="text/css">
	.st0{fill:#C0955E;}
</style>
<path class="st0" d="M10.7,13.3l2.6-2.6c0.2-0.2,0.3-0.4,0.3-0.7s-0.1-0.5-0.3-0.7l-2.6-2.6c-0.2-0.2-0.4-0.3-0.7-0.3
	c-0.3,0-0.5,0.1-0.7,0.3C9.1,6.9,9,7.1,9,7.4s0.1,0.5,0.3,0.7L10.2,9H7C6.7,9,6.5,9.1,6.3,9.3C6.1,9.5,6,9.7,6,10s0.1,0.5,0.3,0.7
	C6.5,10.9,6.7,11,7,11h3.2l-0.9,0.9C9.1,12.1,9,12.3,9,12.6c0,0.3,0.1,0.5,0.3,0.7s0.4,0.3,0.7,0.3S10.5,13.5,10.7,13.3z M10,20
	c-1.4,0-2.7-0.3-3.9-0.8c-1.2-0.5-2.3-1.2-3.2-2.1c-0.9-0.9-1.6-2-2.1-3.2C0.3,12.7,0,11.4,0,10s0.3-2.7,0.8-3.9
	C1.3,4.9,2,3.8,2.9,2.9s2-1.6,3.2-2.1C7.3,0.3,8.6,0,10,0s2.7,0.3,3.9,0.8c1.2,0.5,2.3,1.2,3.2,2.1c0.9,0.9,1.6,2,2.1,3.2
	C19.7,7.3,20,8.6,20,10s-0.3,2.7-0.8,3.9c-0.5,1.2-1.2,2.3-2.1,3.2c-0.9,0.9-2,1.6-3.2,2.1C12.7,19.7,11.4,20,10,20z M10,18
	c2.2,0,4.1-0.8,5.7-2.3c1.6-1.6,2.3-3.4,2.3-5.7c0-2.2-0.8-4.1-2.3-5.7C14.1,2.8,12.2,2,10,2C7.8,2,5.9,2.8,4.3,4.3
	C2.8,5.9,2,7.8,2,10c0,2.2,0.8,4.1,2.3,5.7C5.9,17.2,7.8,18,10,18z"/>
</svg>
